<?xml version="1.0" encoding="UTF-8" standalone="no"?>
<svg id="svg2" xmlns:rdf="http://www.w3.org/1999/02/22-rdf-syntax-ns#" xmlns="http://www.w3.org/2000/svg" height="330" viewBox="0 0 330 330.00001" width="330" version="1.1" xmlns:cc="http://creativecommons.org/ns#" xmlns:dc="http://purl.org/dc/elements/1.1/">
 <path id="path4155" d="m37.5 52.5v240h240" stroke="#000" stroke-width="3" fill="none"/>
 <text id="text4157" font-size="30px" style="word-spacing:0px;letter-spacing:0px" line-height="125%" y="300.00165" x="284.35181" font-family="sans-serif" xml:space="preserve" fill="#000000"><tspan id="tspan4159" y="300.00165" x="284.35181" font-size="22.5px">x</tspan></text>
 <text id="text4161" font-size="30px" style="word-spacing:0px;letter-spacing:0px" line-height="125%" y="39.751637" x="30.851807" font-family="sans-serif" xml:space="preserve" fill="#000000"><tspan id="tspan4163" y="39.751637" x="30.851807" font-size="22.5px">y</tspan></text>
 <circle id="path4165" cy="178.45" cx="112" r="3.75" fill="#164bc5"/>
 <g stroke="#000" stroke-width="1.5" fill="none">
  <path id="path4167" d="m112.5 300.03v-7.5"/>
  <path id="path4169" d="m187.5 300.03v-7.5"/>
  <path id="path4171" d="m262.5 300.03v-7.5"/>
 </g>
 <g font-size="9px" font-family="sans-serif" fill="#000000">
  <text id="text4173" style="word-spacing:0px;letter-spacing:0px" line-height="125%" y="312.00165" x="21.75" xml:space="preserve"><tspan id="tspan4175" y="312.00165" x="21.75" font-size="15px">0</tspan></text>
  <text id="text4177" style="word-spacing:0px;letter-spacing:0px" line-height="125%" y="316.50165" x="107.25" xml:space="preserve"><tspan id="tspan4179" y="316.50165" x="107.25" font-size="15px">1</tspan></text>
  <text id="text4181" style="word-spacing:0px;letter-spacing:0px" line-height="125%" y="316.50165" x="183.75" xml:space="preserve"><tspan id="tspan4183" y="316.50165" x="183.75" font-size="15px">2</tspan></text>
  <text id="text4185" style="word-spacing:0px;letter-spacing:0px" line-height="125%" y="316.28925" x="257.60742" xml:space="preserve"><tspan id="tspan4187" y="316.28925" x="257.60742" font-size="15px">3</tspan></text>
 </g>
 <g stroke="#000" stroke-width="1.5" fill="none">
  <path id="path4189" d="m30 67.5h7.5"/>
  <path id="path4191" d="m30 142.5h7.5"/>
  <path id="path4193" d="m30 217.5h7.5"/>
 </g>
 <g font-size="9px" font-family="sans-serif" fill="#000000">
  <text id="text4227" style="word-spacing:0px;letter-spacing:0px" line-height="125%" y="222.81677" x="15.475319" xml:space="preserve"><tspan id="tspan4229" y="222.81677" x="15.475319" font-size="15px">1</tspan></text>
  <text id="text4231" style="word-spacing:0px;letter-spacing:0px" line-height="125%" y="146.7489" x="15.709694" xml:space="preserve"><tspan id="tspan4233" y="146.7489" x="15.709694" font-size="15px">2</tspan></text>
  <text id="text4235" style="word-spacing:0px;letter-spacing:0px" line-height="125%" y="72.613167" x="15.431374" xml:space="preserve"><tspan id="tspan4237" y="72.613167" x="15.431374" font-size="15px">3</tspan></text>
 </g>
 <circle id="circle4273" cy="217.5" cx="150.96" r="3.75" fill="#164bc5"/>
 <g fill="#0f9640">
  <circle id="circle4275" cy="217.5" cx="262.55" r="3.75"/>
  <circle id="circle4279" cy="139.06" cx="207.87" r="3.75"/>
  <circle id="circle4283" cy="63.288" cx="225.75" r="3.75"/>
 </g>
 <circle id="circle4287" cy="251.65" cx="79.428" r="3.75" fill="#164bc5"/>
 <g fill="#f00">
  <circle id="circle4307" cy="81.113" cx="57.329" r="3.75"/>
  <circle id="circle4313" cy="101.25" cx="112" r="3.75"/>
  <circle id="circle4315" cy="117.44" cx="137.79" r="3.75"/>
 </g>
 <g stroke="#000" stroke-width="1.5" stroke-dasharray="4.5, 4.5" fill="none">
  <path id="path4170" d="m187.5 292.5v-240"/>
  <path id="path5018" d="m216.75 292.5v-240"/>
  <path id="path5020" d="m245.5 292.5v-240"/>
  <path id="path5024" d="m144.75 292.5v-240"/>
  <path id="path5026" d="m125.5 292.5v-240"/>
  <path id="path5028" d="m97.5 292.5v-240"/>
  <path id="path5030" d="m67.5 292.5v-240"/>
 </g>
</svg>
