<?xml version="1.0" encoding="UTF-8" standalone="no"?>
<svg id="svg2" xmlns:rdf="http://www.w3.org/1999/02/22-rdf-syntax-ns#" xmlns="http://www.w3.org/2000/svg" height="330" viewBox="0 0 330 330.00001" width="330" version="1.1" xmlns:cc="http://creativecommons.org/ns#" xmlns:dc="http://purl.org/dc/elements/1.1/">
 <g id="layer1" transform="translate(0 -722.36)">
  <g id="g4168" transform="matrix(.75 0 0 .75 0 263.09)">
   <path id="path4155" stroke="#000" stroke-width="4" fill="none" d="m50 682.36v320h320"/>
   <g id="g65">
    <text id="text4157" style="word-spacing:0px;letter-spacing:0px" xml:space="preserve" font-size="40px" line-height="125%" y="1012.3622" x="379.13574" font-family="sans-serif" fill="#000000"><tspan id="tspan4159" y="1012.3622" x="379.13574" font-size="30px">x</tspan></text>
    <text id="text4161" style="word-spacing:0px;letter-spacing:0px" xml:space="preserve" font-size="40px" line-height="125%" y="665.36218" x="41.135742" font-family="sans-serif" fill="#000000"><tspan id="tspan4163" y="665.36218" x="41.135742" font-size="30px">y</tspan></text>
    <circle id="path4165" cy="765.36" cx="158" r="5" fill="#164bc5"/>
   </g>
   <g id="g72" stroke="#000" stroke-width="2" fill="none">
    <path id="path4167" d="m150 1012.4v-10"/>
    <path id="path4169" d="m250 1012.4v-10"/>
    <path id="path4171" d="m350 1012.4v-10"/>
   </g>
   <g id="g77" font-size="40px" font-family="sans-serif">
    <text id="text4173" style="word-spacing:0px;letter-spacing:0px" xml:space="preserve" line-height="125%" y="1028.3622" x="29"><tspan id="tspan4175" y="1028.3622" x="29" font-size="20px">0</tspan></text>
    <text id="text4177" style="word-spacing:0px;letter-spacing:0px" xml:space="preserve" line-height="125%" y="1034.3622" x="143"><tspan id="tspan4179" y="1034.3622" x="143" font-size="20px">1</tspan></text>
    <text id="text4181" style="word-spacing:0px;letter-spacing:0px" xml:space="preserve" line-height="125%" y="1034.3622" x="245"><tspan id="tspan4183" y="1034.3622" x="245" font-size="20px">2</tspan></text>
    <text id="text4185" style="word-spacing:0px;letter-spacing:0px" xml:space="preserve" line-height="125%" y="1034.079" x="343.47656"><tspan id="tspan4187" y="1034.079" x="343.47656" font-size="20px">3</tspan></text>
   </g>
   <g id="g87" stroke="#000" stroke-width="2" fill="none">
    <path id="path4189" d="m40 702.36h10"/>
    <path id="path4191" d="m40 802.36h10"/>
    <path id="path4193" d="m40 902.36h10"/>
   </g>
   <g id="g92" font-size="40px" font-family="sans-serif">
    <text id="text4227" style="word-spacing:0px;letter-spacing:0px" xml:space="preserve" line-height="125%" y="909.44904" x="20.633759"><tspan id="tspan4229" y="909.44904" x="20.633759" font-size="20px">1</tspan></text>
    <text id="text4231" style="word-spacing:0px;letter-spacing:0px" xml:space="preserve" line-height="125%" y="808.02521" x="20.946259"><tspan id="tspan4233" y="808.02521" x="20.946259" font-size="20px">2</tspan></text>
    <text id="text4235" style="word-spacing:0px;letter-spacing:0px" xml:space="preserve" line-height="125%" y="709.17755" x="20.575165"><tspan id="tspan4237" y="709.17755" x="20.575165" font-size="20px">3</tspan></text>
   </g>
   <g id="g100" fill="#164bc5">
    <circle id="circle4269" cy="852.36" cx="79" r="5"/>
    <circle id="circle4271" cy="878.36" cx="121" r="5"/>
    <circle id="circle4273" cy="955.36" cx="221" r="5"/>
   </g>
   <g id="g105" fill="#0f9640">
    <circle id="circle4275" cy="830.36" cx="275" r="5"/>
    <circle id="circle4279" cy="870.36" cx="299" r="5"/>
    <circle id="circle4281" cy="793.36" cx="337" r="5"/>
    <circle id="circle4283" cy="700.36" cx="295" r="5"/>
    <circle id="circle4285" cy="947.36" cx="340" r="5"/>
   </g>
   <circle id="circle4287" cy="970.36" cx="107" r="5" fill="#164bc5"/>
  </g>
 </g>
</svg>
