<?xml version="1.0" encoding="UTF-8" standalone="no"?>
<svg id="svg5353" xmlns:rdf="http://www.w3.org/1999/02/22-rdf-syntax-ns#" xmlns="http://www.w3.org/2000/svg" height="250" width="300" version="1.1" xmlns:cc="http://creativecommons.org/ns#" xmlns:dc="http://purl.org/dc/elements/1.1/" viewBox="0 0 300 250.00001">
 <g id="layer1" transform="translate(0 -802.36)">
  <path id="path6337" d="m130 880.36-60 94" stroke="#000" stroke-width="2" fill="none"/>
  <path id="path6339" d="m170 880.36 60 94" stroke="#000" stroke-width="2" fill="none"/>
  <text id="text6341" style="word-spacing:0px;letter-spacing:0px" xml:space="preserve" font-size="40px" y="917.36218" x="38.821899" font-family="sans-serif" line-height="125%" fill="#000000"><tspan id="tspan6343" font-size="22.5px" y="917.36218" x="38.821899">x &lt; 2</tspan></text>
  <text id="text6345" style="word-spacing:0px;letter-spacing:0px" line-height="125%" font-size="40px" y="917.36218" x="208.27979" font-family="sans-serif" xml:space="preserve" fill="#000000"><tspan id="tspan6347" font-size="22.5px" y="917.36218" x="208.27979">x ≥ 2</tspan></text>
  <circle id="path5939" cx="150" stroke="#000" cy="849.86" r="36" stroke-width="3" fill="none"/>
  <circle id="circle4275" cy="875.55" cx="156.75" r="3.75" fill="#0f9640"/>
  <g fill="#164bc5">
   <circle id="circle6112" cy="855.61" cx="143.25" r="3.75"/>
   <circle id="circle6114" cy="855.61" cx="123.75" r="3.75"/>
   <circle id="circle6116" cy="877" cx="143.25" r="3.75"/>
  </g>
  <circle id="circle6118" cy="851.77" cx="156.75" r="3.75" fill="#0f9640"/>
  <circle id="circle6120" cy="836.72" cx="172.1" r="3.75" fill="#0f9640"/>
  <g fill="#f00">
   <circle id="circle5858" cy="844.11" cx="123.75" r="3.75"/>
   <circle id="circle5860" cy="824.61" cx="143.25" r="3.75"/>
   <circle id="circle5864" cy="844.11" cx="143.25" r="3.75"/>
  </g>
  <g id="g5980" transform="translate(-75,200)">
   <circle id="circle5884" cx="125" stroke="#000" cy="804.86" r="36" stroke-width="3" fill="none"/>
   <g fill="#164bc5">
    <circle id="circle5890" cy="810.61" cx="118.25" r="3.75"/>
    <circle id="circle5892" cy="810.61" cx="98.75" r="3.75"/>
    <circle id="circle5894" cy="832" cx="118.25" r="3.75"/>
   </g>
   <g fill="#f00">
    <circle id="circle5904" cy="799.11" cx="98.75" r="3.75"/>
    <circle id="circle5906" cy="779.61" cx="118.25" r="3.75"/>
    <circle id="circle5910" cy="799.11" cx="118.25" r="3.75"/>
   </g>
  </g>
  <g id="g5972" transform="translate(-75,200)">
   <circle id="circle5914" cx="325" stroke="#000" cy="804.86" r="36" stroke-width="3" fill="none"/>
   <g fill="#0f9640">
    <circle id="circle5916" cy="830.55" cx="331.75" r="3.75"/>
    <circle id="circle5926" cy="806.77" cx="331.75" r="3.75"/>
    <circle id="circle5928" cy="791.72" cx="347.1" r="3.75"/>
   </g>
  </g>
  <path id="path5970" d="m170 880.36 60 94" stroke="#000" stroke-width="2" fill="none"/>
 </g>
</svg>
