<?xml version="1.0" encoding="UTF-8" standalone="no"?>
<svg id="svg5353" xmlns:rdf="http://www.w3.org/1999/02/22-rdf-syntax-ns#" xmlns="http://www.w3.org/2000/svg" height="450" width="450" version="1.1" xmlns:cc="http://creativecommons.org/ns#" xmlns:dc="http://purl.org/dc/elements/1.1/" viewBox="0 0 450 450.00001">
 <g id="layer1" transform="translate(0 -602.36)">
  <path id="path6337" d="m250 680.36-60 94" stroke="#000" stroke-width="2" fill="none"/>
  <path id="path6339" d="m290 680.36 60 94" stroke="#000" stroke-width="2" fill="none"/>
  <g font-size="40px" font-family="sans-serif">
   <text id="text6341" style="word-spacing:0px;letter-spacing:0px" xml:space="preserve" y="717.36218" x="158.8219" line-height="125%" fill="#000000"><tspan id="tspan6343" font-size="22.5px" y="717.36218" x="158.8219">x &lt; 2</tspan></text>
   <text id="text6345" style="word-spacing:0px;letter-spacing:0px" line-height="125%" y="717.36218" x="328.27979" xml:space="preserve" fill="#000000"><tspan id="tspan6347" font-size="22.5px" y="717.36218" x="328.27979">x ≥ 2</tspan></text>
   <text id="text7232" opacity=".25" style="word-spacing:0px;letter-spacing:0px" xml:space="preserve" y="1026.0436" x="44.599602" line-height="125%" fill="#164bc5"><tspan id="tspan7234" font-size="22.5px" y="1026.0436" x="44.599602" fill="#164bc5">Blue</tspan></text>
   <text id="text7240" opacity=".25" style="word-spacing:0px;letter-spacing:0px" line-height="125%" y="870.60376" x="336.25549" xml:space="preserve" fill="#0f9640"><tspan id="tspan7242" font-size="22.5px" y="870.60376" x="336.25549" fill="#0f9640">Green</tspan></text>
  </g>
  <circle id="path5939" cx="270" stroke="#000" cy="649.86" r="36" stroke-width="3" fill="none"/>
  <circle id="circle4275" cy="675.55" cx="276.75" r="3.75" fill="#0f9640"/>
  <g fill="#164bc5">
   <circle id="circle6112" cy="655.61" cx="263.25" r="3.75"/>
   <circle id="circle6114" cy="655.61" cx="243.75" r="3.75"/>
   <circle id="circle6116" cy="677" cx="263.25" r="3.75"/>
  </g>
  <circle id="circle6118" cy="651.77" cx="276.75" r="3.75" fill="#0f9640"/>
  <circle id="circle6120" cy="636.72" cx="292.1" r="3.75" fill="#0f9640"/>
  <g fill="#f00">
   <circle id="circle5858" cy="644.11" cx="243.75" r="3.75"/>
   <circle id="circle5860" cy="624.61" cx="263.25" r="3.75"/>
   <circle id="circle5864" cy="644.11" cx="263.25" r="3.75"/>
  </g>
  <g id="g5980" opacity=".25" transform="translate(45)">
   <circle id="circle5884" opacity="1" cx="125" stroke="#000" cy="804.86" r="36" stroke-width="3" fill="none"/>
   <g fill="#164bc5">
    <circle id="circle5890" cy="810.61" cx="118.25" r="3.75"/>
    <circle id="circle5892" cy="810.61" cx="98.75" r="3.75"/>
    <circle id="circle5894" cy="832" cx="118.25" r="3.75"/>
   </g>
   <g fill="#f00">
    <circle id="circle5904" cy="799.11" cx="98.75" r="3.75"/>
    <circle id="circle5906" cy="779.61" cx="118.25" r="3.75"/>
    <circle id="circle5910" cy="799.11" cx="118.25" r="3.75"/>
   </g>
  </g>
  <g id="g5972" opacity=".25" transform="translate(45)">
   <circle id="circle5914" opacity="1" cx="325" stroke="#000" cy="804.86" r="36" stroke-width="3" fill="none"/>
   <g fill="#0f9640">
    <circle id="circle5916" cy="830.55" cx="331.75" r="3.75"/>
    <circle id="circle5926" cy="806.77" cx="331.75" r="3.75"/>
    <circle id="circle5928" cy="791.72" cx="347.1" r="3.75"/>
   </g>
  </g>
  <g stroke="#000" fill="none">
   <path id="path5970" d="m290 680.36 60 94" stroke-width="2"/>
   <path id="path5991" opacity=".25" d="m150 835.36-60 94" stroke-width="2"/>
   <circle id="circle6025" opacity=".25" cx="70" cy="959.86" r="36" stroke-width="3"/>
  </g>
  <g fill="#164bc5">
   <circle id="circle6029" opacity=".25" cy="965.61" cx="63.25" r="3.75"/>
   <circle id="circle6031" opacity=".25" cy="965.61" cx="43.75" r="3.75"/>
   <circle id="circle6033" opacity=".25" cy="987" cx="63.25" r="3.75"/>
  </g>
  <path id="path6057" opacity=".25" d="m190 835.36 60 94" stroke="#000" stroke-width="2" fill="none"/>
  <circle id="circle6061" opacity=".25" stroke-width="3" stroke="#000" cy="959.86" cx="270" r="36" fill="none"/>
  <g fill="#f00">
   <circle id="circle6071" opacity=".25" cy="954.11" cx="243.75" r="3.75"/>
   <circle id="circle6073" opacity=".25" cy="934.61" cx="263.25" r="3.75"/>
   <circle id="circle6077" opacity=".25" cy="954.11" cx="263.25" r="3.75"/>
  </g>
  <g font-size="40px" font-family="sans-serif">
   <text id="text6097" opacity=".25" style="word-spacing:0px;letter-spacing:0px" line-height="125%" y="879.68201" x="52.821899" xml:space="preserve" fill="#000000"><tspan id="tspan6099" font-size="22.5px" y="879.68201" x="52.821899">y &lt; 2</tspan></text>
   <text id="text6101" opacity=".25" style="word-spacing:0px;letter-spacing:0px" xml:space="preserve" y="879.68201" x="228.8219" line-height="125%" fill="#000000"><tspan id="tspan6103" font-size="22.5px" y="879.68201" x="228.8219">y ≥ 2</tspan></text>
   <text id="text6105" opacity=".25" style="word-spacing:0px;letter-spacing:0px" line-height="125%" y="1026.0436" x="248.53821" xml:space="preserve" fill="#ff0000"><tspan id="tspan6107" font-size="22.5px" y="1026.0436" x="248.53821" fill="#ff0000">Red</tspan></text>
  </g>
 </g>
</svg>
