<?xml version="1.0" encoding="UTF-8" standalone="no"?>
<svg id="svg5353" xmlns:rdf="http://www.w3.org/1999/02/22-rdf-syntax-ns#" xmlns="http://www.w3.org/2000/svg" height="420" width="450" version="1.1" xmlns:cc="http://creativecommons.org/ns#" xmlns:dc="http://purl.org/dc/elements/1.1/" viewBox="0 0 450 420.00001">
 <g id="layer1" transform="translate(0 -632.36)">
  <path id="path6337" d="m250 715.36-60 94" stroke="#000" stroke-width="2" fill="none"/>
  <path id="path6339" d="m290 715.36 60 94" stroke="#000" stroke-width="2" fill="none"/>
  <text id="text6341" style="word-spacing:0px;letter-spacing:0px" xml:space="preserve" font-size="40px" y="752.36218" x="158.8219" font-family="sans-serif" line-height="125%" fill="#000000"><tspan id="tspan6343" font-size="22.5px" y="752.36218" x="158.8219">x &lt; 2</tspan></text>
  <text id="text6345" style="word-spacing:0px;letter-spacing:0px" line-height="125%" font-size="40px" y="752.36218" x="328.27979" font-family="sans-serif" xml:space="preserve" fill="#000000"><tspan id="tspan6347" font-size="22.5px" y="752.36218" x="328.27979">x ≥ 2</tspan></text>
  <circle id="path5939" cx="270" stroke="#000" cy="684.86" r="36" stroke-width="3" fill="none"/>
  <circle id="circle4275" cy="710.55" cx="276.75" r="3.75" fill="#0f9640"/>
  <g fill="#164bc5">
   <circle id="circle6112" cy="690.61" cx="263.25" r="3.75"/>
   <circle id="circle6114" cy="690.61" cx="243.75" r="3.75"/>
   <circle id="circle6116" cy="712" cx="263.25" r="3.75"/>
  </g>
  <circle id="circle6118" cy="686.77" cx="276.75" r="3.75" fill="#0f9640"/>
  <circle id="circle6120" cy="671.72" cx="292.1" r="3.75" fill="#0f9640"/>
  <g fill="#f00">
   <circle id="circle5858" cy="679.11" cx="243.75" r="3.75"/>
   <circle id="circle5860" cy="659.61" cx="263.25" r="3.75"/>
   <circle id="circle5864" cy="679.11" cx="263.25" r="3.75"/>
  </g>
  <circle id="circle5884" stroke-width="3" stroke="#000" cy="839.86" cx="170" r="36" fill="none"/>
  <g fill="#164bc5">
   <circle id="circle5890" cy="845.61" cx="163.25" r="3.75"/>
   <circle id="circle5892" cy="845.61" cx="143.75" r="3.75"/>
   <circle id="circle5894" cy="867" cx="163.25" r="3.75"/>
  </g>
  <g fill="#f00">
   <circle id="circle5904" cy="834.11" cx="143.75" r="3.75"/>
   <circle id="circle5906" cy="814.61" cx="163.25" r="3.75"/>
   <circle id="circle5910" cy="834.11" cx="163.25" r="3.75"/>
  </g>
  <circle id="circle5914" stroke-width="3" stroke="#000" cy="839.86" cx="370" r="36" fill="none"/>
  <g fill="#0f9640">
   <circle id="circle5916" cy="865.55" cx="376.75" r="3.75"/>
   <circle id="circle5926" cy="841.77" cx="376.75" r="3.75"/>
   <circle id="circle5928" cy="826.72" cx="392.1" r="3.75"/>
  </g>
  <g stroke="#000" fill="none">
   <path id="path5970" d="m290 715.36 60 94" stroke-width="2"/>
   <path id="path5991" d="m150 870.36-60 94" stroke-width="2"/>
   <circle id="circle6025" cx="70" cy="994.86" r="36" stroke-width="3"/>
  </g>
  <g fill="#164bc5">
   <circle id="circle6029" cy="1000.6" cx="63.25" r="3.75"/>
   <circle id="circle6031" cy="1000.6" cx="43.75" r="3.75"/>
   <circle id="circle6033" cy="1022" cx="63.25" r="3.75"/>
  </g>
  <path id="path6057" d="m190 870.36 60 94" stroke="#000" stroke-width="2" fill="none"/>
  <circle id="circle6061" stroke-width="3" stroke="#000" cy="994.86" cx="270" r="36" fill="none"/>
  <g fill="#f00">
   <circle id="circle6071" cy="989.11" cx="243.75" r="3.75"/>
   <circle id="circle6073" cy="969.61" cx="263.25" r="3.75"/>
   <circle id="circle6077" cy="989.11" cx="263.25" r="3.75"/>
  </g>
  <text id="text6097" style="word-spacing:0px;letter-spacing:0px" line-height="125%" font-size="40px" y="914.68201" x="52.821899" font-family="sans-serif" xml:space="preserve" fill="#000000"><tspan id="tspan6099" font-size="22.5px" y="914.68201" x="52.821899">y &lt; 2</tspan></text>
  <text id="text6101" style="word-spacing:0px;letter-spacing:0px" xml:space="preserve" font-size="40px" y="914.68201" x="228.8219" font-family="sans-serif" line-height="125%" fill="#000000"><tspan id="tspan6103" font-size="22.5px" y="914.68201" x="228.8219">y ≥ 2</tspan></text>
 </g>
</svg>
