<?xml version="1.0" encoding="UTF-8" standalone="no"?>
<svg id="svg5353" xmlns:rdf="http://www.w3.org/1999/02/22-rdf-syntax-ns#" xmlns="http://www.w3.org/2000/svg" height="360" width="600" version="1.1" xmlns:cc="http://creativecommons.org/ns#" xmlns:dc="http://purl.org/dc/elements/1.1/" viewBox="0 0 600 360.00001">
 <g id="layer1" transform="translate(0 -692.36)">
  <rect id="rect8726" height="216" width="598" stroke="#000" y="695.36" x="1" stroke-width="2" fill="none"/>
  <g id="g5877" transform="matrix(.25 0 0 .25 26 582.01)" stroke="#000" fill="none">
   <path id="path6337" d="m250 715.36-60 94" stroke-width="4"/>
   <path id="path6339" d="m290 715.36 60 94" stroke-width="2"/>
   <g stroke-width="4">
    <circle id="path5939" cy="684.86" cx="270" r="36"/>
    <circle id="circle5884" cx="170" cy="839.86" r="36"/>
    <circle id="circle5914" cx="370" cy="839.86" r="36"/>
   </g>
   <g stroke-width="4">
    <path id="path5970" d="m290 715.36 60 94"/>
    <path id="path5991" d="m150 870.36-60 94"/>
    <circle id="circle6025" cy="994.86" cx="70" r="36"/>
    <path id="path6057" d="m190 870.36 60 94"/>
    <circle id="circle6061" cx="270" cy="994.86" r="36"/>
   </g>
  </g>
  <text id="text7232" style="word-spacing:0px;letter-spacing:0px" xml:space="preserve" font-size="12.5px" y="862.14978" x="66.888672" font-family="sans-serif" line-height="125%" fill="#164bc5"><tspan id="tspan7234" font-size="12.5px" y="862.14978" x="66.888672" fill="#164bc5">Blue</tspan></text>
  <g id="g8728" transform="translate(-50,110)" stroke="#000" fill="none">
   <path id="path8454" d="m231.5 650.85 15 23.5"/>
   <path id="path8456" d="m221.5 650.85-15 23.5" stroke-width=".5"/>
   <g>
    <circle id="circle8458" cx="-226.5" transform="scale(-1,1)" cy="643.22" r="9"/>
    <circle id="circle8460" transform="scale(-1,1)" cy="681.97" cx="-251.5" r="9"/>
    <circle id="circle8462" transform="scale(-1,1)" cy="681.97" cx="-201.5" r="9"/>
   </g>
   <g>
    <path id="path8464" d="m221.5 650.85-15 23.5"/>
    <path id="path8466" d="m256.5 689.6 15 23.5"/>
    <circle id="circle8468" cx="-276.5" transform="scale(-1,1)" cy="720.72" r="9"/>
    <path id="path8470" d="m246.5 689.6-15 23.5"/>
    <circle id="circle8472" transform="scale(-1,1)" cy="720.72" cx="-226.5" r="9"/>
   </g>
  </g>
  <text id="text8474" style="word-spacing:0px;letter-spacing:0px" line-height="125%" font-size="12.5px" y="862.14978" x="174.88867" font-family="sans-serif" xml:space="preserve" fill="#164bc5"><tspan id="tspan8476" font-size="12.5px" y="862.14978" x="174.88867" fill="#164bc5">Blue</tspan></text>
  <g id="g8480" transform="matrix(.25 0 0 .25 242 582.01)" stroke="#000" fill="none">
   <path id="path8482" d="m250 715.36-60 94" stroke-width="4"/>
   <path id="path8484" d="m290 715.36 60 94" stroke-width="2"/>
   <g stroke-width="4">
    <circle id="circle8486" cy="684.86" cx="270" r="36"/>
    <circle id="circle8488" cx="170" cy="839.86" r="36"/>
    <circle id="circle8490" cx="370" cy="839.86" r="36"/>
   </g>
   <g stroke-width="4">
    <path id="path8492" d="m290 715.36 60 94"/>
    <path id="path8494" d="m150 870.36-60 94"/>
    <circle id="circle8496" cy="994.86" cx="70" r="36"/>
    <path id="path8498" d="m190 870.36 60 94"/>
    <circle id="circle8500" cx="270" cy="994.86" r="36"/>
   </g>
  </g>
  <g id="g8508" transform="matrix(.25 0 0 .25 350 582.01)" stroke="#000" fill="none">
   <path id="path8510" d="m250 715.36-60 94" stroke-width="4"/>
   <path id="path8512" d="m290 715.36 60 94" stroke-width="2"/>
   <g stroke-width="4">
    <circle id="circle8514" cx="270" cy="684.86" r="36"/>
    <circle id="circle8516" cy="839.86" cx="170" r="36"/>
    <circle id="circle8518" cy="839.86" cx="370" r="36"/>
   </g>
   <g stroke-width="4">
    <path id="path8520" d="m290 715.36 60 94"/>
    <path id="path8522" d="m150 870.36-60 94"/>
    <circle id="circle8524" cx="70" cy="994.86" r="36"/>
    <path id="path8526" d="m190 870.36 60 94"/>
    <circle id="circle8528" cy="994.86" cx="270" r="36"/>
   </g>
  </g>
  <text id="text8530" style="word-spacing:0px;letter-spacing:0px" line-height="125%" font-size="12.5px" y="862.14978" x="390.88867" font-family="sans-serif" xml:space="preserve" fill="#164bc5"><tspan id="tspan8532" font-size="12.5px" y="862.14978" x="390.88867" fill="#164bc5">Blue</tspan></text>
  <g id="g8714" transform="translate(-34,110)" stroke="#000" fill="none">
   <path id="path8538" d="m539.5 650.85 15 23.5"/>
   <path id="path8540" d="m529.5 650.85-15 23.5" stroke-width=".5"/>
   <g>
    <circle id="circle8542" transform="scale(-1,1)" cy="643.22" cx="-534.5" r="9"/>
    <circle id="circle8544" cx="-559.5" transform="scale(-1,1)" cy="681.97" r="9"/>
    <circle id="circle8546" cx="-509.5" transform="scale(-1,1)" cy="681.97" r="9"/>
   </g>
   <g>
    <path id="path8548" d="m529.5 650.85-15 23.5"/>
    <path id="path8550" d="m564.5 689.6 15 23.5"/>
    <circle id="circle8552" transform="scale(-1,1)" cy="720.72" cx="-584.5" r="9"/>
    <path id="path8554" d="m554.5 689.6-15 23.5"/>
    <circle id="circle8556" cx="-534.5" transform="scale(-1,1)" cy="720.72" r="9"/>
   </g>
  </g>
  <text id="text7240" style="word-spacing:0px;letter-spacing:0px" line-height="125%" font-size="12.5px" y="862.14978" x="278.25305" font-family="sans-serif" xml:space="preserve" fill="#0f9640"><tspan id="tspan7242" font-size="12.5px" y="862.14978" x="278.25305" fill="#0f9640">Green</tspan></text>
  <text id="text6105" style="word-spacing:0px;letter-spacing:0px" line-height="125%" font-size="12.5px" y="862.14978" x="501.07678" font-family="sans-serif" xml:space="preserve" fill="#ff0000"><tspan id="tspan6107" font-size="12.5px" y="862.14978" x="501.07678" fill="#ff0000">Red</tspan></text>
  <g id="g8752" stroke-linejoin="round" transform="translate(-40 114)" stroke="#000" stroke-width="2" fill="none">
   <path id="path8740" d="m340 822.36v60l-20-20"/>
   <path id="path8742" d="m340 882.36 20-20"/>
  </g>
  <text id="text8756" style="word-spacing:0px;letter-spacing:0px" xml:space="preserve" font-size="40px" y="1042.76" x="266.13281" font-family="sans-serif" line-height="125%" fill="#164bc5"><tspan id="tspan8758" font-size="30px" y="1042.76" x="266.13281" fill="#164bc5">Blue</tspan></text>
 </g>
</svg>
