<?xml version="1.0" encoding="UTF-8" standalone="no"?>
<svg id="svg2" xmlns:rdf="http://www.w3.org/1999/02/22-rdf-syntax-ns#" xmlns="http://www.w3.org/2000/svg" height="250" viewBox="0 0 700.00001 250.00001" width="700" version="1.1" xmlns:cc="http://creativecommons.org/ns#" xmlns:dc="http://purl.org/dc/elements/1.1/">
 <rect id="rect4244" height="250" width="700" y="-.000014648" x="0" fill="#fff"/>
 <text id="text4343" style="word-spacing:0px;letter-spacing:0px" font-size="40px" line-height="125%" y="149.45213" x="349.29999" font-family="sans-serif" xml:space="preserve" fill="#000000"><tspan id="tspan4345" y="149.45213" x="349.29999"/></text>
 <text id="text4347" style="word-spacing:0px;letter-spacing:0px" font-size="40px" line-height="125%" y="138.95213" x="369.64999" font-family="sans-serif" xml:space="preserve" fill="#000000"><tspan id="tspan4349" y="138.95213" x="369.64999"/></text>
 <path id="path4321" stroke-linejoin="round" d="m263 144-10 10m-30-10h40l-10-10" stroke="#000" stroke-width="4" fill="none"/>
 <text id="text4351" style="word-spacing:0px;letter-spacing:0px" font-size="40px" line-height="125%" y="181.04228" x="222.89404" font-family="sans-serif" xml:space="preserve" fill="#000000"><tspan id="tspan4353" y="181.04228" x="222.89404" font-size="17.5px">conv</tspan></text>
 <g id="g4193" transform="translate(-3.9985)">
  <g id="g4181" transform="translate(-99.63)">
   <path id="path4234" stroke-linejoin="round" d="m174.91 203.44h107.7v-107.7h-107.7z" fill-rule="evenodd" stroke="#000" stroke-width="2.154px" fill="#fff"/>
   <text id="text4246" style="word-spacing:0px;letter-spacing:0px" xml:space="preserve" font-size="40px" line-height="125%" y="59.282455" x="197.32549" font-family="sans-serif" fill="#000000"><tspan id="tspan4248" y="59.282455" x="197.32549" font-size="20px">28x28</tspan></text>
  </g>
  <g id="g4173" transform="translate(-107.63)">
   <g id="g4312" stroke-linejoin="round" transform="translate(20,-782.36)" stroke="#000" stroke-width="2px" fill="none">
    <path id="path4156" d="m395.17 886.93 20-20h100v100l-20 20"/>
    <path id="path4158" d="m495.17 886.93 20-20"/>
    <path id="path4150" d="m395.17 886.93v100h100v-100z"/>
   </g>
   <text id="text4250" style="word-spacing:0px;letter-spacing:0px" xml:space="preserve" font-size="40px" line-height="125%" y="59.282455" x="431.45419" font-family="sans-serif" fill="#000000"><tspan id="tspan4252" y="59.282455" x="431.45419" font-size="20px">26x26x8</tspan></text>
  </g>
  <g id="g4165" transform="translate(-83.627)">
   <g id="g4153" stroke-linejoin="round" transform="matrix(.5 0 0 .5 442.95 -318.9)" stroke="#000" stroke-width="4" fill="none">
    <path id="path4155" d="m395.17 886.93 40-40h100v100l-40 40"/>
    <path id="path4157" d="m495.17 886.93 40-40"/>
    <path id="path4159" d="m395.17 886.93v100h100v-100z"/>
   </g>
   <text id="text4161" font-size="40px" xml:space="preserve" style="word-spacing:0px;letter-spacing:0px" line-height="125%" y="59.282455" x="631.45422" font-family="sans-serif" fill="#000000"><tspan id="tspan4163" y="59.282455" x="631.45422" font-size="20px">13x13x8</tspan></text>
  </g>
 </g>
 <path id="path4231" stroke-linejoin="round" d="m505.62 144-10 10m-30-10h40l-10-10" stroke="#000" stroke-width="4" fill="none"/>
 <text id="text4233" font-size="40px" xml:space="preserve" style="word-spacing:0px;letter-spacing:0px" line-height="125%" y="181.04228" x="448.89404" font-family="sans-serif" fill="#000000"><tspan id="tspan4235" y="181.04228" x="448.89404" font-size="17.5px">maxpool</tspan></text>
</svg>
