<?xml version="1.0" encoding="UTF-8" standalone="no"?>
<svg id="svg2" xmlns:rdf="http://www.w3.org/1999/02/22-rdf-syntax-ns#" xmlns="http://www.w3.org/2000/svg" height="401" viewBox="0 0 751.00006 401.00001" width="751" version="1.1" xmlns:cc="http://creativecommons.org/ns#" xmlns:dc="http://purl.org/dc/elements/1.1/">
 <rect id="rect6012" height="401" width="751" y="-.000023901" x="0" fill="#fff"/>
 <g stroke="#fff">
  <g stroke-width="2">
   <rect id="rect4191" height="99" width="99" y="301" x="1"/>
   <rect id="rect4198" height="99" width="99" y="301" x="101"/>
   <rect id="rect4204" height="99" width="99" y="301" x="201"/>
   <rect id="rect4210" height="99" width="99" y="201" x="201"/>
   <rect id="rect4222" height="99" width="99" y="101" x="101"/>
  </g>
  <rect id="rect4228" height="99" width="99" y="201" x="101" fill="#0b692d"/>
  <g stroke-width="2">
   <rect id="rect4234" height="99" width="99" y="201" x="1"/>
   <rect id="rect4240" height="99" width="99" y="101" x="1"/>
   <rect id="rect4275" height="99" width="99" y="301" x="301" fill="#052d13"/>
   <rect id="rect4281" height="99" width="99" y="201" x="301"/>
   <rect id="rect4287" height="99" width="99" y="101" x="301"/>
   <rect id="rect4293" height="99" width="99" y="1" x="1"/>
   <rect id="rect4299" height="99" width="99" y="1" x="101" fill="#0f9640"/>
   <rect id="rect4305" height="99" width="99" y="1" x="201"/>
  </g>
 </g>
 <g stroke="#fff" stroke-width="2">
  <rect id="rect4311" height="99" width="99" y="1" x="301"/>
  <rect id="rect4216" height="99" width="99" y="101" x="201" fill="#074b20"/>
  <rect id="rect4136-4" height="99" width="99" y="201" x="551" fill="#0b692d"/>
  <rect id="rect4149-6" height="99" width="99" y="201" x="651" fill="#052d14"/>
  <rect id="rect4197-0" height="99" width="99" y="101" x="651" fill="#074b20"/>
  <rect id="rect4205-0" height="99" width="99" y="101" x="551" fill="#0f9540"/>
 </g>
 <path id="path4321" stroke-linejoin="round" d="m450 200.5 10-10m30 10h-40l10 10" stroke="#000" stroke-width="4" fill="none"/>
</svg>
