<?xml version="1.0" encoding="UTF-8" standalone="no"?>
<svg id="svg2" xmlns:rdf="http://www.w3.org/1999/02/22-rdf-syntax-ns#" xmlns="http://www.w3.org/2000/svg" height="400" viewBox="0 0 1200.0001 400.00001" width="1200" version="1.1" xmlns:cc="http://creativecommons.org/ns#" xmlns:dc="http://purl.org/dc/elements/1.1/">
 <g id="g8708" transform="translate(22.406 -537.36)">
  <g id="g4" name="monogram_container" transform="matrix(4.226,0,0,4.226,867.59,631.71)" rel="inversefill" fill="#1e2127">
   <title id="title6">assets</title>
   <circle id="circle8" cx="25" cy="25" r="25"/>
  </g>
  <g id="g10" name="monogram" transform="matrix(2,0,0,2,920.59,643.01)" rel="symbolfill" fill="#fff">
   <path id="path12" d="m13.95 46.575v0.225c-0.075 0.15-0.075 0.3-0.075 0.45 0 0.225 0.075 0.375 0.075 0.525v0.525s0 0.3 0.075 0.525c0 0.15 0 0.3 0.075 0.525 0 0.15 0 0.3 0.075 0.375 0 0.225 0.075 0.375 0.075 0.525s0.075 0.3 0.15 0.45c0.075 0.3 0.15 0.6 0.225 0.975l0.225 0.45c0 0.15 0.075 0.225 0.15 0.375 0.075 0.3 0.225 0.6 0.375 0.9 0.075 0.15 0.15 0.3 0.3 0.525 0.075 0.15 0.15 0.3 0.225 0.375 0.15 0.3 0.375 0.6 0.525 0.9l0.3 0.3c0.075 0.15 0.15 0.3 0.225 0.375 0.225 0.225 0.45 0.525 0.675 0.75l0.675 0.675c0.3 0.3 0.525 0.45 0.825 0.675 0.225 0.225 0.45 0.45 0.75 0.6 0.525 0.375 1.05 0.75 1.65 0.975 0.15 0.075 0.3 0.15 0.375 0.225 0.225 0.075 0.375 0.15 0.6 0.225 0.15 0.075 0.225 0.075 0.375 0.15s0.3 0.15 0.45 0.15c0.375 0.15 0.675 0.225 0.975 0.3s0.675 0.15 0.975 0.225 0.675 0.075 0.975 0.15c0.3 0 0.6 0.075 0.9 0.075h1.05c0.3 0 0.675 0 1.05-0.075 0.6-0.075 1.275-0.15 1.875-0.3s1.2-0.375 1.8-0.6c0.15-0.075 0.3-0.075 0.45-0.15s0.3-0.15 0.525-0.225h4.95c-0.075 0-0.15 0.075-0.15 0.15-0.075 0-0.15 0.075-0.225 0.15-0.45 0.375-0.975 0.75-1.5 1.125-0.225 0.15-0.525 0.3-0.825 0.45-0.3 0.225-0.6 0.375-0.9 0.525-0.075 0.075-0.225 0.075-0.375 0.15l-0.45 0.225c-0.3 0.15-0.6 0.225-0.9 0.375-0.3 0.075-0.6 0.225-0.9 0.3-0.225 0.075-0.375 0.075-0.525 0.15-0.15 0-0.3 0.075-0.45 0.075-0.15 0.075-0.3 0.075-0.525 0.15h-0.15c-0.15 0.075-0.225 0.075-0.375 0.075-0.3 0.075-0.6 0.075-0.975 0.15-0.6 0.075-1.275 0.075-1.95 0.075h-0.45-0.45c-0.3 0-0.675-0.075-0.975-0.075-0.375-0.075-0.675-0.15-1.05-0.15l-0.9-0.225c-0.375-0.075-0.675-0.225-1.05-0.3-0.225-0.075-0.525-0.225-0.825-0.3-0.6-0.225-1.2-0.525-1.8-0.75-0.3-0.15-0.6-0.3-0.825-0.525-0.3-0.15-0.6-0.3-0.825-0.525-0.15-0.075-0.3-0.15-0.375-0.225-0.15-0.075-0.3-0.225-0.375-0.3-0.15-0.075-0.225-0.15-0.375-0.225l-0.375-0.375c-0.525-0.375-0.975-0.825-1.425-1.35-0.075-0.075-0.225-0.225-0.3-0.375-0.15-0.075-0.225-0.225-0.375-0.375-0.225-0.225-0.375-0.525-0.6-0.75-0.075-0.15-0.225-0.3-0.3-0.45s-0.15-0.225-0.225-0.375c-0.075-0.075-0.15-0.225-0.225-0.375-0.15-0.15-0.225-0.3-0.3-0.45-0.15-0.3-0.3-0.525-0.45-0.825s-0.3-0.6-0.375-0.9c-0.15-0.375-0.3-0.675-0.375-0.975-0.075-0.15-0.15-0.3-0.15-0.45-0.075-0.15-0.075-0.3-0.15-0.45-0.075-0.3-0.15-0.6-0.225-0.975l-0.225-0.9c0-0.15 0-0.3-0.075-0.45v-0.3s-0.075-0.15-0.075-0.225v-0.45-0.525c-0.075-0.675-0.075-1.35 0-2.025s0.15-1.275 0.225-1.95l0.225-0.9s0.225-0.675 0.3-0.975c0-0.15 0.075-0.225 0.15-0.375 0.075-0.225 0.075-0.375 0.15-0.525 0.15-0.3 0.225-0.6 0.375-0.825l0.45-0.9c0.075-0.15 0.15-0.375 0.225-0.525s0.15-0.3 0.3-0.375l0.225-0.45s0.15-0.225 0.225-0.375 0.225-0.3 0.3-0.45c0.15-0.075 0.225-0.225 0.3-0.375 0.375-0.525 0.825-0.975 1.275-1.425 0.225-0.225 0.45-0.525 0.75-0.675 0.225-0.225 0.45-0.45 0.75-0.675 0.075-0.075 0.225-0.15 0.375-0.3 0.075-0.075 0.225-0.15 0.3-0.225 0.15-0.075 0.3-0.225 0.45-0.3 0.075-0.075 0.225-0.15 0.375-0.225 0.525-0.375 1.125-0.675 1.725-0.975l0.45-0.225c0.075 0 0.225-0.075 0.375-0.15 0.3-0.15 0.675-0.225 0.975-0.375 0.3-0.075 0.6-0.225 0.975-0.3 0.15 0 0.3-0.075 0.45-0.075 0.15-0.075 0.3-0.075 0.45-0.15 0.3-0.075 0.6-0.15 0.975-0.15 0.15 0 0.3-0.075 0.45-0.075 0.225 0 0.375-0.075 0.525-0.075 0.675-0.075 1.275-0.075 1.95-0.075 0.375 0 0.675 0.075 1.05 0.075 0.3 0 0.675 0.075 0.975 0.15 0.3 0 0.6 0.075 0.9 0.15 0.225 0 0.375 0.075 0.525 0.075 0.15 0.075 0.3 0.075 0.45 0.075 0.6 0.225 1.2 0.375 1.8 0.6 0.15 0.075 0.375 0.15 0.525 0.225l0.45 0.225s0.3 0.15 0.375 0.225l1.35 0.675c0.225 0.15 0.525 0.375 0.75 0.525 0.15 0.075 0.3 0.225 0.375 0.3 0.075 0 0.15 0.075 0.225 0.15 0.075 0 0.15 0.075 0.15 0.15 0.15 0.075 0.3 0.15 0.375 0.225 0.15 0.15 0.3 0.225 0.375 0.375h-4.875c-0.075 0-0.075 0-0.15-0.075-0.3-0.075-0.6-0.225-0.9-0.375-0.15-0.075-0.3-0.15-0.525-0.15-0.15-0.075-0.3-0.15-0.45-0.15-0.3-0.15-0.6-0.225-0.9-0.3s-0.675-0.075-0.975-0.15c-0.675-0.15-1.35-0.15-2.025-0.225-0.6 0-1.275 0-1.875 0.15-0.675 0.075-1.35 0.15-1.95 0.375-0.375 0.075-0.675 0.15-0.975 0.3-0.15 0-0.3 0.075-0.45 0.15-0.15 0-0.225 0.075-0.375 0.15-0.225 0.075-0.375 0.15-0.6 0.225-0.075 0.075-0.225 0.15-0.375 0.225-0.3 0.15-0.6 0.3-0.9 0.525-0.225 0.15-0.525 0.3-0.75 0.45-0.225 0.225-0.525 0.375-0.75 0.6-0.15 0.075-0.225 0.225-0.375 0.3-0.15 0.15-0.3 0.225-0.375 0.375-0.3 0.225-0.525 0.45-0.75 0.75-0.225 0.225-0.375 0.45-0.6 0.675-0.075 0.15-0.15 0.225-0.3 0.375-0.075 0.15-0.15 0.225-0.3 0.375l-0.225 0.45c-0.075 0.075-0.15 0.225-0.225 0.375s-0.225 0.225-0.3 0.375c-0.075 0.225-0.15 0.375-0.225 0.6-0.075 0.075-0.15 0.225-0.15 0.3-0.075 0.15-0.225 0.3-0.225 0.525-0.15 0.3-0.3 0.6-0.375 0.9s-0.225 0.6-0.3 0.975c0 0.15-0.075 0.225-0.075 0.375-0.075 0.15-0.075 0.375-0.075 0.525-0.075 0.15-0.075 0.3-0.075 0.45-0.075 0.225-0.075 0.375-0.075 0.525-0.075 0.3-0.075 0.675-0.075 0.975zm28.8 13.125h9.9s-0.075 0.15-0.075 0.225c-0.15 0.225-0.3 0.525-0.45 0.75-0.15 0.3-0.3 0.6-0.45 0.825-0.075 0.15-0.225 0.3-0.3 0.45-0.075 0.075-0.15 0.225-0.225 0.375s-0.15 0.225-0.225 0.375c-0.15 0.15-0.225 0.225-0.3 0.375s-0.15 0.3-0.3 0.375c0 0.075-0.075 0.15-0.075 0.225-0.075 0-0.075 0.075-0.075 0.075l-0.075 0.075c0 0.075-0.075 0.075-0.075 0.075 0 0.075-0.075 0.075-0.075 0.15l-0.15 0.15c-0.075 0.15-0.225 0.3-0.3 0.45-0.45 0.45-0.825 0.975-1.275 1.425-0.225 0.225-0.45 0.45-0.6 0.675-0.3 0.225-0.525 0.45-0.825 0.75-0.45 0.375-0.9 0.825-1.425 1.2-0.45 0.375-0.975 0.825-1.5 1.125-0.15 0.15-0.375 0.3-0.525 0.45-0.075 0-0.225 0.075-0.3 0.15-0.3 0.225-0.6 0.375-0.9 0.6-0.6 0.3-1.2 0.675-1.8 0.975s-1.2 0.525-1.8 0.825c-0.525 0.225-1.125 0.45-1.725 0.675-0.6 0.15-1.275 0.375-1.875 0.525-0.375 0.075-0.675 0.15-1.05 0.3-0.15 0-0.3 0.075-0.45 0.075-0.225 0-0.375 0.075-0.6 0.075-0.6 0.15-1.275 0.225-1.95 0.3-0.6 0.075-1.275 0.15-1.875 0.15-0.675 0.075-1.275 0.075-1.95 0.075-0.3-0.075-0.675-0.075-0.975-0.075-0.375 0-0.75-0.075-1.125-0.075-0.15 0-0.3-0.075-0.45-0.075s-0.375-0.075-0.525-0.075c-0.375 0-0.675-0.075-1.05-0.15-0.6-0.075-1.275-0.225-1.875-0.375s-1.2-0.375-1.8-0.525c-0.3-0.15-0.6-0.225-0.9-0.3-0.375-0.15-0.675-0.3-0.975-0.375-0.3-0.15-0.675-0.3-0.975-0.45-0.15-0.075-0.3-0.075-0.375-0.15-0.225-0.15-0.375-0.225-0.6-0.3-0.6-0.3-1.125-0.6-1.725-0.9-0.525-0.375-1.05-0.675-1.575-1.05l-1.575-1.125c-0.225-0.225-0.525-0.45-0.825-0.675-0.225-0.225-0.45-0.45-0.75-0.675-0.225-0.225-0.525-0.45-0.75-0.75-0.225-0.15-0.375-0.375-0.6-0.6-0.45-0.45-0.9-0.975-1.275-1.425-0.225-0.3-0.45-0.525-0.6-0.75-0.225-0.225-0.375-0.525-0.6-0.75-0.15-0.225-0.3-0.525-0.525-0.825-0.075-0.075-0.15-0.225-0.225-0.375s-0.225-0.3-0.3-0.45c-0.15-0.225-0.3-0.45-0.45-0.75-0.075-0.15-0.15-0.225-0.225-0.375s-0.15-0.3-0.225-0.375c-0.3-0.6-0.6-1.2-0.825-1.725l-0.225-0.45c0-0.15-0.15-0.375-0.15-0.525l-0.225-0.45c0-0.15-0.075-0.3-0.15-0.45-0.225-0.6-0.375-1.2-0.6-1.8l-0.225-0.9c-0.075-0.375-0.15-0.675-0.225-0.975s-0.15-0.675-0.225-1.05c0-0.3-0.075-0.6-0.15-0.9-0.075-0.675-0.15-1.35-0.15-2.025-0.075-0.6-0.075-1.275-0.075-1.875 0-0.675 0-1.35 0.075-2.025 0-0.3 0.075-0.675 0.075-0.975 0.075-0.3 0.075-0.675 0.15-0.975s0.075-0.675 0.15-0.975c0-0.15 0.075-0.225 0.075-0.375 0-0.225 0.075-0.375 0.075-0.525 0.075-0.075 0.075-0.15 0.075-0.225s0.075-0.15 0.075-0.3 0.075-0.3 0.075-0.375c0.075-0.375 0.225-0.675 0.3-0.975 0.15-0.675 0.375-1.35 0.6-1.95s0.45-1.2 0.75-1.725l0.225-0.45c0-0.075 0.075-0.15 0.075-0.3 0.075 0 0.075 0 0.075-0.075l0.075-0.075v-0.15s0.075 0 0.075-0.075 0.075-0.15 0.15-0.225c0.075-0.15 0.075-0.3 0.15-0.375 0.15-0.3 0.3-0.525 0.45-0.825s0.375-0.525 0.525-0.825c0.075-0.15 0.15-0.225 0.225-0.375 0.15-0.15 0.225-0.3 0.3-0.45s0.225-0.225 0.3-0.375 0.15-0.225 0.225-0.375c0.225-0.225 0.375-0.525 0.6-0.75 0.15-0.225 0.375-0.45 0.6-0.75 0.15-0.225 0.375-0.45 0.6-0.675 0.225-0.3 0.45-0.525 0.675-0.75l0.3-0.3c0.075-0.15 0.225-0.225 0.3-0.3 0.225-0.225 0.45-0.45 0.75-0.675l1.575-1.35c0.225-0.225 0.525-0.375 0.825-0.6 0.225-0.225 0.525-0.375 0.825-0.6 0.525-0.375 1.125-0.675 1.65-0.975 0.525-0.375 1.125-0.6 1.65-0.9 0.3-0.15 0.6-0.3 0.9-0.375 0.3-0.15 0.6-0.3 0.975-0.45 0.3-0.15 0.6-0.225 0.975-0.375 0.3-0.075 0.6-0.225 0.975-0.3 0.6-0.225 1.275-0.375 1.95-0.525 0.6-0.15 1.2-0.3 1.8-0.375 0.675-0.15 1.275-0.225 1.95-0.3 0.3 0 0.675-0.075 1.05-0.075h0.975 1.05 1.05c0.3 0.075 0.6 0.075 0.975 0.075 0.3 0.075 0.6 0.075 0.9 0.15 0.6 0.075 1.275 0.15 1.875 0.3 0.675 0.075 1.35 0.225 2.025 0.45 0.15 0 0.3 0.075 0.45 0.075 0.15 0.075 0.3 0.15 0.45 0.15 0.375 0.15 0.75 0.225 1.05 0.375 0.075 0 0.225 0.075 0.3 0.075l0.675 0.225c0.3 0.15 0.525 0.3 0.825 0.375 0.6 0.3 1.125 0.525 1.725 0.825 0.525 0.3 1.125 0.6 1.725 0.975 0.3 0.15 0.6 0.375 0.9 0.6 0.225 0.15 0.525 0.375 0.825 0.525 0.075 0.075 0.225 0.15 0.3 0.225 0.225 0.15 0.375 0.3 0.525 0.45 0.3 0.15 0.525 0.375 0.75 0.6 0.525 0.375 0.975 0.825 1.425 1.2 0.15 0.15 0.3 0.3 0.375 0.45 0.15 0.075 0.225 0.15 0.3 0.3 0.225 0.15 0.45 0.375 0.675 0.6 0.225 0.3 0.45 0.525 0.6 0.75 0.225 0.3 0.45 0.525 0.675 0.825 0.15 0.225 0.375 0.45 0.525 0.675 0.225 0.3 0.375 0.525 0.6 0.75 0.3 0.6 0.675 1.125 0.975 1.65 0.15 0.3 0.375 0.525 0.45 0.825 0.075 0.15 0.15 0.225 0.225 0.375 0.075 0.075 0.075 0.15 0.15 0.225 0 0.075 0.075 0.15 0.075 0.225h-9.9l-0.3-0.3c-0.075-0.15-0.15-0.225-0.3-0.375-0.15-0.225-0.375-0.45-0.6-0.675-0.45-0.375-0.975-0.825-1.425-1.275-0.15-0.075-0.225-0.15-0.375-0.3-0.15-0.075-0.225-0.15-0.375-0.225-0.3-0.225-0.525-0.375-0.825-0.6-0.15-0.075-0.225-0.15-0.375-0.225s-0.225-0.15-0.375-0.225c-0.3-0.15-0.6-0.375-0.9-0.525-0.6-0.3-1.125-0.6-1.725-0.825-0.3-0.075-0.6-0.225-0.9-0.3-0.375-0.15-0.675-0.225-0.975-0.3-0.3-0.15-0.6-0.225-0.975-0.3-0.3-0.075-0.675-0.15-0.975-0.225l-2.025-0.225s-1.35-0.075-1.95-0.075c-0.375 0-0.675 0.075-0.975 0.075s-0.6 0.075-0.975 0.075c-0.6 0.075-1.275 0.15-1.875 0.3s-1.275 0.3-1.875 0.525-1.275 0.45-1.875 0.75l-1.8 0.9c-0.075 0.075-0.15 0.075-0.225 0.15 0 0-0.075 0.075-0.15 0.075-0.075 0.075-0.225 0.15-0.375 0.3-0.15 0.075-0.3 0.15-0.375 0.225-0.15 0.075-0.3 0.15-0.375 0.3-0.525 0.375-1.05 0.75-1.575 1.2-0.45 0.375-0.9 0.825-1.275 1.275-0.45 0.45-0.9 0.975-1.275 1.5-0.375 0.45-0.75 0.975-1.05 1.5-0.375 0.6-0.75 1.2-0.975 1.8l-0.45 0.9c-0.075 0.15-0.15 0.3-0.15 0.45l-0.225 0.45c-0.15 0.6-0.375 1.125-0.525 1.8-0.15 0.6-0.3 1.275-0.45 1.95-0.075 0.6-0.15 1.275-0.15 1.95-0.075 0.375-0.075 0.675-0.075 0.975s0 0.6 0.075 0.975c0 0.6 0.075 1.275 0.15 1.95s0.225 1.275 0.375 1.95 0.375 1.275 0.6 1.875c0.075 0.15 0.15 0.3 0.15 0.45l0.225 0.45c0.075 0.3 0.225 0.6 0.375 0.9l0.225 0.45s0.15 0.225 0.225 0.375c0.15 0.3 0.3 0.6 0.45 0.825 0.375 0.6 0.75 1.125 1.125 1.65s0.825 0.975 1.275 1.425c0.15 0.225 0.375 0.45 0.6 0.675l0.3 0.3c0.15 0.15 0.3 0.225 0.375 0.375 0.225 0.225 0.525 0.375 0.75 0.6s0.525 0.375 0.75 0.6c0.525 0.3 0.975 0.675 1.5 0.975 0.6 0.3 1.2 0.675 1.8 0.9 0.6 0.3 1.2 0.525 1.875 0.75 0.6 0.225 1.2 0.375 1.875 0.525 0.3 0.15 0.675 0.15 1.05 0.225 0.3 0.075 0.6 0.15 0.9 0.15 0.375 0.075 0.675 0.075 0.975 0.15h0.45 0.45 2.025c0.3-0.075 0.675-0.075 0.975-0.15 0.3 0 0.6-0.075 0.975-0.075 0.6-0.15 1.275-0.3 1.875-0.45 0.375-0.15 0.675-0.225 0.975-0.3 0.15-0.075 0.375-0.15 0.525-0.225 0.15 0 0.3-0.075 0.45-0.15 0.3-0.15 0.6-0.225 0.9-0.375l0.9-0.45c0.6-0.3 1.125-0.6 1.65-0.975 0.3-0.15 0.525-0.375 0.825-0.525 0.075-0.075 0.225-0.225 0.375-0.3 0.075-0.075 0.225-0.225 0.375-0.3 0.45-0.375 0.975-0.825 1.425-1.275s0.825-0.9 1.275-1.35z"/>
  </g>
 </g>
 <g id="Prototype-v2" fill="none" transform="matrix(4 0 0 4 100 150)">
  <g id="already-merged" fill="#2e9fff" transform="translate(-308,-18)">
   <g id="header-+-h1-logged-in">
    <g id="header">
     <g id="logo-disqus-and-tmz" transform="translate(308,18)">
      <path id="logo-disqus" d="m9.184 0.47658h-9.184v23.81h9.0478c8.5721 0 13.572-5.1018 13.572-11.973v-0.06857c0-6.8705-4.932-11.768-13.436-11.768zm6.667 11.938c0 3.8427-2.619 6.0205-6.5644 6.0205h-2.6872v-12.109h2.6872c3.9454 0 6.5644 2.2107 6.5644 6.0202v0.06826zm11.156 11.87h6.6326v-23.809h-6.6326v23.809zm21.939-14.829c-3.299-0.7487-4.116-1.2246-4.116-2.3124v-0.068888c0-0.85045 0.78282-1.5306 2.381-1.5306 2.1083 0 4.4896 0.81569 6.6671 2.3472l3.299-4.6609c-2.585-2.0744-5.748-3.1635-9.795-3.1635-5.7146 0-9.2178 3.197-9.2178 7.619v0.068261c0 4.8985 3.9116 6.3273 8.9792 7.4825 3.2315 0.74806 4.0137 1.2923 4.0137 2.2792v0.06795c0 1.0202-0.95253 1.6323-2.7211 1.6323-2.7549 0-5.3742-0.98572-7.7208-2.8567l-3.6736 4.3882c2.9252 2.6193 6.9389 3.9466 11.157 3.9466 5.7822 0 9.6261-2.8911 9.6261-7.7555v-0.06795c-0.000314-4.4555-3.4021-6.224-8.8778-7.4148zm37.755 2.9255v-0.06826c0-6.8374-5.442-12.314-12.789-12.314s-12.857 5.5448-12.857 12.382v0.06764c0 6.8368 5.4421 12.313 12.79 12.313 2.7208 0 5.2038-0.78282 7.2448-2.1092l2.618 2.346 3.333-3.707-2.448-2.074c1.3596-1.9392 2.1083-4.3208 2.1083-6.8371zm-6.7003 0.13558c0 0.81632-0.13621 1.5985-0.40832 2.3124l-3.2312-2.9252-3.3332 3.7415 3.2994 2.8238c-0.71424 0.27211-1.5302 0.44213-2.4145 0.44213-3.6388 0-6.0881-3.0267-6.0881-6.4626v-0.06764c0-3.4356 2.4148-6.4291 6.0199-6.4291 3.6739 0 6.1573 3.0273 6.1573 6.4967v0.06763l-0.0013 0.000313zm26.157 1.3605c0 3.3326-1.7356 4.897-4.3888 4.897-2.6525 0-4.3875-1.6317-4.3875-5.0676v-13.231h-6.7003v13.367c0 7.449 4.2516 10.885 11.02 10.885 6.7688 0 11.156-3.3674 11.156-11.055v-13.198h-6.7003v13.401zm21.564-4.4217c-3.2994-0.74868-4.116-1.2246-4.116-2.3124v-0.068888c0-0.85045 0.78281-1.5306 2.382-1.5306 2.1076 0 4.4896 0.81569 6.6661 2.3472l3.2997-4.6599c-2.5846-2.0745-5.7474-3.1635-9.7949-3.1635-5.7146 0-9.2181 3.197-9.2181 7.619v0.068262c0 4.8985 3.9116 6.3267 8.9792 7.4825 3.2315 0.74868 4.0136 1.2929 4.0136 2.2799v0.06732c0 1.0202-0.95284 1.633-2.7214 1.633-2.7552 0-5.3745-0.98697-7.7211-2.8573l-3.6727 4.3875c2.9255 2.6199 6.9389 3.946 11.156 3.946 5.7828 0 9.6261-2.8911 9.6261-7.7549v-0.06858c-0.00062-4.4552-3.4024-6.2237-8.8784-7.4145z"/>
     </g>
    </g>
   </g>
  </g>
 </g>
 <g id="g8646" transform="translate(15 -552.36)" stroke="#000" stroke-width="5" fill="none">
  <path id="path8642" stroke-linejoin="round" d="m700 752.36h100l-20-20"/>
  <path id="path8644" d="m800 752.36-20 20"/>
 </g>
</svg>
