<?xml version="1.0" encoding="UTF-8" standalone="no"?>
<!-- Generator: Adobe Illustrator 19.0.0, SVG Export Plug-In . SVG Version: 6.00 Build 0)  -->

<svg
   xmlns:dc="http://purl.org/dc/elements/1.1/"
   xmlns:cc="http://creativecommons.org/ns#"
   xmlns:rdf="http://www.w3.org/1999/02/22-rdf-syntax-ns#"
   xmlns:svg="http://www.w3.org/2000/svg"
   xmlns="http://www.w3.org/2000/svg"
   xmlns:sodipodi="http://sodipodi.sourceforge.net/DTD/sodipodi-0.dtd"
   xmlns:inkscape="http://www.inkscape.org/namespaces/inkscape"
   version="1.1"
   id="Capa_1"
   x="0px"
   y="0px"
   viewBox="0 0 333.00001 333.00001"
   xml:space="preserve"
   sodipodi:docname="moon.svg"
   inkscape:version="0.92.2 5c3e80d, 2017-08-06"
   width="333"
   height="333"><metadata
     id="metadata43"><rdf:RDF><cc:Work
         rdf:about=""><dc:format>image/svg+xml</dc:format><dc:type
           rdf:resource="http://purl.org/dc/dcmitype/StillImage" /><dc:title></dc:title></cc:Work></rdf:RDF></metadata><defs
     id="defs41" /><sodipodi:namedview
     pagecolor="#ffffff"
     bordercolor="#666666"
     borderopacity="1"
     objecttolerance="10"
     gridtolerance="10"
     guidetolerance="10"
     inkscape:pageopacity="0"
     inkscape:pageshadow="2"
     inkscape:window-width="2560"
     inkscape:window-height="1395"
     id="namedview39"
     showgrid="false"
     inkscape:zoom="0.75399604"
     inkscape:cx="156.4995"
     inkscape:cy="156.4995"
     inkscape:window-x="0"
     inkscape:window-y="1"
     inkscape:window-maximized="1"
     inkscape:current-layer="Capa_1" /><g
     id="g6"
     style="fill:#ffff5f;fill-opacity:1;stroke:#ffc02b;stroke-width:20;stroke-miterlimit:4;stroke-dasharray:none;stroke-opacity:1"
     transform="translate(10.068168,9.9848771)"><g
       id="g4"
       style="fill:#ffff5f;fill-opacity:1;stroke:#ffc02b;stroke-width:20;stroke-miterlimit:4;stroke-dasharray:none;stroke-opacity:1"><path
         d="m 305.6,178.053 c -3.2,-0.8 -6.4,0 -9.2,2 -10.4,8.8 -22.4,16 -35.6,20.8 -12.4,4.8 -26,7.2 -40.4,7.2 -32.4,0 -62,-13.2 -83.2,-34.4 -21.2,-21.2 -34.4,-50.8 -34.4,-83.2 0,-13.6 2.4,-26.8 6.4,-38.8 4.4,-12.8 10.8,-24.4 19.2,-34.4 3.6,-4.4 2.8,-10.8 -1.6,-14.4 -2.8,-2 -6,-2.8 -9.2,-2 -34,9.2 -63.6,29.6 -84.8,56.8 -20.4,26.8 -32.8,60 -32.8,96.4 0,43.6 17.6,83.2 46.4,112 28.8,28.8 68.4,46.4 112,46.4 36.8,0 70.8,-12.8 98,-34 27.6,-21.6 47.6,-52.4 56,-87.6 2,-6 -1.2,-11.6 -6.8,-12.8 z"
         id="path2"
         style="fill:#ffff5f;fill-opacity:1;stroke:#ffc02b;stroke-width:20;stroke-miterlimit:4;stroke-dasharray:none;stroke-opacity:1"
         inkscape:connector-curvature="0"
         sodipodi:nodetypes="cccssscccccsssccc" /></g></g><g
     id="g8"
     transform="translate(0,20.001007)" /><g
     id="g10"
     transform="translate(0,20.001007)" /><g
     id="g12"
     transform="translate(0,20.001007)" /><g
     id="g14"
     transform="translate(0,20.001007)" /><g
     id="g16"
     transform="translate(0,20.001007)" /><g
     id="g18"
     transform="translate(0,20.001007)" /><g
     id="g20"
     transform="translate(0,20.001007)" /><g
     id="g22"
     transform="translate(0,20.001007)" /><g
     id="g24"
     transform="translate(0,20.001007)" /><g
     id="g26"
     transform="translate(0,20.001007)" /><g
     id="g28"
     transform="translate(0,20.001007)" /><g
     id="g30"
     transform="translate(0,20.001007)" /><g
     id="g32"
     transform="translate(0,20.001007)" /><g
     id="g34"
     transform="translate(0,20.001007)" /><g
     id="g36"
     transform="translate(0,20.001007)" /></svg>