<?xml version="1.0" encoding="UTF-8" standalone="no"?>
<!-- Generator: Adobe Illustrator 19.0.0, SVG Export Plug-In . SVG Version: 6.00 Build 0)  -->

<svg
   xmlns:dc="http://purl.org/dc/elements/1.1/"
   xmlns:cc="http://creativecommons.org/ns#"
   xmlns:rdf="http://www.w3.org/1999/02/22-rdf-syntax-ns#"
   xmlns:svg="http://www.w3.org/2000/svg"
   xmlns="http://www.w3.org/2000/svg"
   xmlns:sodipodi="http://sodipodi.sourceforge.net/DTD/sodipodi-0.dtd"
   xmlns:inkscape="http://www.inkscape.org/namespaces/inkscape"
   version="1.1"
   id="Capa_1"
   x="0px"
   y="0px"
   viewBox="0 0 307.56 307.56"
   xml:space="preserve"
   sodipodi:docname="sun.svg"
   inkscape:version="0.92.2 5c3e80d, 2017-08-06"
   width="307.56"
   height="307.56"><metadata
     id="metadata91"><rdf:RDF><cc:Work
         rdf:about=""><dc:format>image/svg+xml</dc:format><dc:type
           rdf:resource="http://purl.org/dc/dcmitype/StillImage" /><dc:title></dc:title></cc:Work></rdf:RDF></metadata><defs
     id="defs89" /><sodipodi:namedview
     pagecolor="#ffffff"
     bordercolor="#666666"
     borderopacity="1"
     objecttolerance="10"
     gridtolerance="10"
     guidetolerance="10"
     inkscape:pageopacity="0"
     inkscape:pageshadow="2"
     inkscape:window-width="2560"
     inkscape:window-height="1395"
     id="namedview87"
     showgrid="false"
     inkscape:zoom="1"
     inkscape:cx="151.2"
     inkscape:cy="171.06206"
     inkscape:window-x="0"
     inkscape:window-y="1"
     inkscape:window-maximized="1"
     inkscape:current-layer="Capa_1" /><g
     id="g6"
     transform="matrix(0.9999,0,0,0.9999,2.59512,2.5951177)"
     style="fill:#f8b45d;fill-opacity:1"><g
       id="g4"
       style="fill:#f8b45d;fill-opacity:1"><path
         d="M 204.8,97.6 C 191.2,84 172,75.2 151.2,75.2 c -20.8,0 -40,8.4 -53.6,22.4 -13.6,13.6 -22.4,32.8 -22.4,53.6 0,20.8 8.8,40 22.4,53.6 13.6,13.6 32.8,22.4 53.6,22.4 20.8,0 40,-8.4 53.6,-22.4 13.6,-13.6 22.4,-32.8 22.4,-53.6 0,-20.8 -8.4,-40 -22.4,-53.6 z"
         id="path2"
         inkscape:connector-curvature="0"
         sodipodi:nodetypes="cscssscsc"
         style="fill:#f8b45d;fill-opacity:1" /></g></g><g
     id="g12"
     style="fill:#f8b45d;fill-opacity:1;stroke:none;stroke-opacity:1"
     transform="matrix(1.1,0,0,1.1,-25.08,-12.540002)"><g
       id="g10"
       style="fill:#f8b45d;fill-opacity:1;stroke:none;stroke-opacity:1"><path
         d="m 292,140.8 h -30.8 c -5.6,0 -10.4,4.8 -10.4,10.4 0,5.6 4.8,10.4 10.4,10.4 H 292 c 5.6,0 10.4,-4.8 10.4,-10.4 0,-5.6 -4.8,-10.4 -10.4,-10.4 z"
         id="path8"
         style="fill:#f8b45d;fill-opacity:1;stroke:none;stroke-opacity:1"
         inkscape:connector-curvature="0" /></g></g><g
     id="g18"
     style="fill:#f8b45d;fill-opacity:1;stroke:none;stroke-opacity:1"
     transform="matrix(1.1,0,0,1.1,-12.54,-25.080002)"><g
       id="g16"
       style="fill:#f8b45d;fill-opacity:1;stroke:none;stroke-opacity:1"><path
         d="m 151.2,250.8 c -5.6,0 -10.4,4.8 -10.4,10.4 V 292 c 0,5.6 4.8,10.4 10.4,10.4 5.6,0 10.4,-4.8 10.4,-10.4 v -30.8 c 0,-5.6 -4.8,-10.4 -10.4,-10.4 z"
         id="path14"
         style="fill:#f8b45d;fill-opacity:1;stroke:none;stroke-opacity:1"
         inkscape:connector-curvature="0" /></g></g><g
     id="g24"
     style="fill:#fffa58;fill-opacity:1;stroke:none;stroke-opacity:1"
     transform="matrix(1.1,0,0,1.1,-21.4,-21.400002)"><g
       id="g22"
       style="fill:#fffa58;fill-opacity:1;stroke:none;stroke-opacity:1"><path
         d="m 258,243.6 -22,-22 c -3.6,-4 -10.4,-4 -14.4,0 -4,4 -4,10.4 0,14.4 l 22,22 c 4,4 10.4,4 14.4,0 4,-4 4,-10.4 0,-14.4 z"
         id="path20"
         style="fill:#fffa58;fill-opacity:1;stroke:none;stroke-opacity:1"
         inkscape:connector-curvature="0" /></g></g><g
     id="g30"
     style="fill:#f8b45d;fill-opacity:1;stroke:none;stroke-opacity:1"
     transform="matrix(1.1,0,0,1.1,-12.54,-2.3414062e-6)"><g
       id="g28"
       style="fill:#f8b45d;fill-opacity:1;stroke:none;stroke-opacity:1"><path
         d="m 151.2,0 c -5.6,0 -10.4,4.8 -10.4,10.4 v 30.8 c 0,5.6 4.8,10.4 10.4,10.4 5.6,0 10.4,-4.8 10.4,-10.4 V 10.4 C 161.6,4.8 156.8,0 151.2,0 Z"
         id="path26"
         style="fill:#f8b45d;fill-opacity:1;stroke:none;stroke-opacity:1"
         inkscape:connector-curvature="0" /></g></g><g
     id="g36"
     style="fill:#fffa58;fill-opacity:1;stroke:none;stroke-opacity:1"
     transform="matrix(1.1,0,0,1.1,-21.44,-3.6800023)"><g
       id="g34"
       style="fill:#fffa58;fill-opacity:1;stroke:none;stroke-opacity:1"><path
         d="m 258.4,44.4 c -4,-4 -10.4,-4 -14.4,0 l -22,22 c -4,4 -4,10.4 0,14.4 3.6,4 10.4,4 14.4,0 l 22,-22 c 4,-4 4,-10.4 0,-14.4 z"
         id="path32"
         style="fill:#fffa58;fill-opacity:1;stroke:none;stroke-opacity:1"
         inkscape:connector-curvature="0" /></g></g><g
     id="g42"
     style="fill:#f8b45d;fill-opacity:1;stroke:none;stroke-opacity:1"
     transform="matrix(1.1,0,0,1.1,0,-12.540002)"><g
       id="g40"
       style="fill:#f8b45d;fill-opacity:1;stroke:none;stroke-opacity:1"><path
         d="M 41.2,140.8 H 10.4 c -5.6,0 -10.4,4.8 -10.4,10.4 0,5.6 4.4,10.4 10.4,10.4 h 30.8 c 5.6,0 10.4,-4.8 10.4,-10.4 0,-5.6 -4.8,-10.4 -10.4,-10.4 z"
         id="path38"
         style="fill:#f8b45d;fill-opacity:1;stroke:none;stroke-opacity:1"
         inkscape:connector-curvature="0" /></g></g><g
     id="g48"
     style="fill:#fffa58;fill-opacity:1;stroke:none;stroke-opacity:1"
     transform="matrix(1.1,0,0,1.1,-3.64,-21.400002)"><g
       id="g46"
       style="fill:#fffa58;fill-opacity:1;stroke:none;stroke-opacity:1"><path
         d="m 80.4,221.6 c -3.6,-4 -10.4,-4 -14.4,0 l -22,22 c -4,4 -4,10.4 0,14.4 4,4 10.4,4 14.4,0 l 22,-22 c 4,-4 4,-10.4 0,-14.4 z"
         id="path44"
         style="fill:#fffa58;fill-opacity:1;stroke:none;stroke-opacity:1"
         inkscape:connector-curvature="0" /></g></g><g
     id="g54"
     style="fill:#fffa58;fill-opacity:1;stroke:none;stroke-opacity:1"
     transform="matrix(1.1,0,0,1.1,-3.64,-3.6800023)"><g
       id="g52"
       style="fill:#fffa58;fill-opacity:1;stroke:none;stroke-opacity:1"><path
         d="m 80.4,66.4 -22,-22 c -4,-4 -10.4,-4 -14.4,0 -4,4 -4,10.4 0,14.4 l 22,22 c 4,4 10.4,4 14.4,0 4,-4 4,-10.4 0,-14.4 z"
         id="path50"
         style="fill:#fffa58;fill-opacity:1;stroke:none;stroke-opacity:1"
         inkscape:connector-curvature="0" /></g></g><g
     id="g56"
     style="fill:#f8b45d;fill-opacity:1"
     transform="translate(2.58,2.5799977)" /><g
     id="g58"
     style="fill:#f8b45d;fill-opacity:1"
     transform="translate(2.58,2.5799977)" /><g
     id="g60"
     style="fill:#f8b45d;fill-opacity:1"
     transform="translate(2.58,2.5799977)" /><g
     id="g62"
     style="fill:#f8b45d;fill-opacity:1"
     transform="translate(2.58,2.5799977)" /><g
     id="g64"
     style="fill:#f8b45d;fill-opacity:1"
     transform="translate(2.58,2.5799977)" /><g
     id="g66"
     style="fill:#f8b45d;fill-opacity:1"
     transform="translate(2.58,2.5799977)" /><g
     id="g68"
     style="fill:#f8b45d;fill-opacity:1"
     transform="translate(2.58,2.5799977)" /><g
     id="g70"
     style="fill:#f8b45d;fill-opacity:1"
     transform="translate(2.58,2.5799977)" /><g
     id="g72"
     style="fill:#f8b45d;fill-opacity:1"
     transform="translate(2.58,2.5799977)" /><g
     id="g74"
     style="fill:#f8b45d;fill-opacity:1"
     transform="translate(2.58,2.5799977)" /><g
     id="g76"
     style="fill:#f8b45d;fill-opacity:1"
     transform="translate(2.58,2.5799977)" /><g
     id="g78"
     style="fill:#f8b45d;fill-opacity:1"
     transform="translate(2.58,2.5799977)" /><g
     id="g80"
     style="fill:#f8b45d;fill-opacity:1"
     transform="translate(2.58,2.5799977)" /><g
     id="g82"
     style="fill:#f8b45d;fill-opacity:1"
     transform="translate(2.58,2.5799977)" /><g
     id="g84"
     style="fill:#f8b45d;fill-opacity:1"
     transform="translate(2.58,2.5799977)" /></svg>